<mxfile host="app.diagrams.net" modified="2023-04-14T22:52:28.234Z" agent="Mozilla/5.0 (Macintosh; Intel Mac OS X 10_15_7) AppleWebKit/537.36 (KHTML, like Gecko) Chrome/112.0.0.0 Safari/537.36 Edg/112.0.1722.39" version="21.1.8" etag="BhrFtqHAdfNA5MJeMZni" type="github">
  <diagram name="Page-1" id="i3M9es1-F-NBCH73ueIv">
    <mxGraphModel>
      <root>
        <mxCell id="0" />
        <mxCell id="1" parent="0" />
      </root>
    </mxGraphModel>
  </diagram>
</mxfile>
